<mxfile host="app.diagrams.net" modified="2024-07-16T16:34:49.971Z" agent="Mozilla/5.0 (Windows NT 10.0; Win64; x64) AppleWebKit/537.36 (KHTML, like Gecko) Chrome/126.0.0.0 Safari/537.36" etag="Cb5bO7VbVkDfYK9izTfQ" version="24.6.5" type="github">
  <diagram name="페이지-1" id="govlIPcVuCTkNT_6EK9A">
    <mxGraphModel dx="1434" dy="780" grid="1" gridSize="10" guides="1" tooltips="1" connect="1" arrows="1" fold="1" page="1" pageScale="1" pageWidth="827" pageHeight="1169" math="0" shadow="0">
      <root>
        <mxCell id="0" />
        <mxCell id="1" parent="0" />
        <mxCell id="_rLQb4sH9Tr5v9o5mnK6-1" value="웹페이지 로그인" style="rounded=1;whiteSpace=wrap;html=1;" vertex="1" parent="1">
          <mxGeometry x="160" y="20" width="120" height="60" as="geometry" />
        </mxCell>
        <mxCell id="_rLQb4sH9Tr5v9o5mnK6-2" value="" style="endArrow=classic;html=1;rounded=0;exitX=0.5;exitY=1;exitDx=0;exitDy=0;" edge="1" parent="1">
          <mxGeometry width="50" height="50" relative="1" as="geometry">
            <mxPoint x="259.5" y="190" as="sourcePoint" />
            <mxPoint x="260" y="280" as="targetPoint" />
          </mxGeometry>
        </mxCell>
        <mxCell id="_rLQb4sH9Tr5v9o5mnK6-5" value="" style="rounded=1;whiteSpace=wrap;html=1;" vertex="1" parent="1">
          <mxGeometry x="200" y="280" width="120" height="60" as="geometry" />
        </mxCell>
        <mxCell id="_rLQb4sH9Tr5v9o5mnK6-13" style="edgeStyle=orthogonalEdgeStyle;rounded=0;orthogonalLoop=1;jettySize=auto;html=1;exitX=1;exitY=0.5;exitDx=0;exitDy=0;" edge="1" parent="1" source="_rLQb4sH9Tr5v9o5mnK6-6">
          <mxGeometry relative="1" as="geometry">
            <mxPoint x="260" y="240" as="targetPoint" />
          </mxGeometry>
        </mxCell>
        <mxCell id="_rLQb4sH9Tr5v9o5mnK6-6" value="서버DB" style="ellipse;whiteSpace=wrap;html=1;" vertex="1" parent="1">
          <mxGeometry x="30" y="210" width="90" height="60" as="geometry" />
        </mxCell>
        <mxCell id="_rLQb4sH9Tr5v9o5mnK6-7" value="인증" style="text;html=1;align=center;verticalAlign=middle;whiteSpace=wrap;rounded=0;" vertex="1" parent="1">
          <mxGeometry x="145" y="200" width="60" height="30" as="geometry" />
        </mxCell>
        <mxCell id="_rLQb4sH9Tr5v9o5mnK6-9" value="AWS" style="swimlane;fontStyle=0;childLayout=stackLayout;horizontal=1;startSize=26;fillColor=none;horizontalStack=0;resizeParent=1;resizeParentMax=0;resizeLast=0;collapsible=1;marginBottom=0;html=1;" vertex="1" parent="1">
          <mxGeometry x="5" y="270" width="140" height="104" as="geometry" />
        </mxCell>
        <mxCell id="_rLQb4sH9Tr5v9o5mnK6-10" value="id" style="text;strokeColor=none;fillColor=none;align=left;verticalAlign=top;spacingLeft=4;spacingRight=4;overflow=hidden;rotatable=0;points=[[0,0.5],[1,0.5]];portConstraint=eastwest;whiteSpace=wrap;html=1;" vertex="1" parent="_rLQb4sH9Tr5v9o5mnK6-9">
          <mxGeometry y="26" width="140" height="26" as="geometry" />
        </mxCell>
        <mxCell id="_rLQb4sH9Tr5v9o5mnK6-15" style="edgeStyle=orthogonalEdgeStyle;rounded=0;orthogonalLoop=1;jettySize=auto;html=1;exitX=1;exitY=0.5;exitDx=0;exitDy=0;" edge="1" parent="_rLQb4sH9Tr5v9o5mnK6-9" source="_rLQb4sH9Tr5v9o5mnK6-11">
          <mxGeometry relative="1" as="geometry">
            <mxPoint x="175" y="-30" as="targetPoint" />
          </mxGeometry>
        </mxCell>
        <mxCell id="_rLQb4sH9Tr5v9o5mnK6-11" value="Accesskey" style="text;strokeColor=none;fillColor=none;align=left;verticalAlign=top;spacingLeft=4;spacingRight=4;overflow=hidden;rotatable=0;points=[[0,0.5],[1,0.5]];portConstraint=eastwest;whiteSpace=wrap;html=1;" vertex="1" parent="_rLQb4sH9Tr5v9o5mnK6-9">
          <mxGeometry y="52" width="140" height="26" as="geometry" />
        </mxCell>
        <mxCell id="_rLQb4sH9Tr5v9o5mnK6-16" style="edgeStyle=orthogonalEdgeStyle;rounded=0;orthogonalLoop=1;jettySize=auto;html=1;exitX=1;exitY=0.5;exitDx=0;exitDy=0;" edge="1" parent="_rLQb4sH9Tr5v9o5mnK6-9" source="_rLQb4sH9Tr5v9o5mnK6-12">
          <mxGeometry relative="1" as="geometry">
            <mxPoint x="175" y="60" as="targetPoint" />
          </mxGeometry>
        </mxCell>
        <mxCell id="_rLQb4sH9Tr5v9o5mnK6-12" value="Secretkey" style="text;strokeColor=none;fillColor=none;align=left;verticalAlign=top;spacingLeft=4;spacingRight=4;overflow=hidden;rotatable=0;points=[[0,0.5],[1,0.5]];portConstraint=eastwest;whiteSpace=wrap;html=1;" vertex="1" parent="_rLQb4sH9Tr5v9o5mnK6-9">
          <mxGeometry y="78" width="140" height="26" as="geometry" />
        </mxCell>
      </root>
    </mxGraphModel>
  </diagram>
</mxfile>
